<svg width="123" height="42" viewBox="0 0 123 42" fill="none" xmlns="http://www.w3.org/2000/svg">
<g id="Group">
<rect id="&#226;&#151;&#188;&#239;&#184;&#143; Background" width="123" height="42" rx="6" fill="black"/>
<g id="Subtract">
<path d="M24.7282 8.6897C24.8773 10.0467 24.34 11.384 23.5547 12.3669C22.7352 13.3345 21.4243 14.0747 20.1474 13.9793C19.9803 12.6736 20.6273 11.2851 21.3515 10.4379C22.17 9.47658 23.5915 8.74006 24.7282 8.6897Z" fill="white"/>
<path d="M28.908 16.5179C28.7655 16.6031 26.4041 18.0136 26.43 20.8904C26.4606 24.3643 29.4671 25.5127 29.503 25.5244C29.485 25.6054 29.0322 27.1836 27.9045 28.7826C26.9628 30.1927 25.9762 31.5713 24.4092 31.5947C23.664 31.6123 23.1608 31.3979 22.6365 31.1745C22.0898 30.9417 21.5201 30.699 20.6291 30.699C19.6844 30.699 19.0894 30.9497 18.5157 31.1914C18.0193 31.4006 17.5388 31.6031 16.8615 31.6306C15.369 31.6855 14.2288 30.127 13.253 28.7295C11.3023 25.8779 9.78373 20.6934 11.8198 17.1655C12.8064 15.4353 14.6053 14.3211 16.5281 14.2914C17.3749 14.2741 18.187 14.6007 18.8989 14.887C19.4434 15.1059 19.9292 15.3013 20.3272 15.3013C20.6767 15.3013 21.1489 15.1137 21.6992 14.8951C22.5666 14.5506 23.628 14.1289 24.7093 14.2428C25.4488 14.2644 27.5532 14.5351 28.9109 16.5162L28.908 16.5179Z" fill="white"/>
<path fill-rule="evenodd" clip-rule="evenodd" d="M39.7174 9.46421H37.6081V15.7452H39.7174C41.5832 15.7452 42.6791 14.583 42.6791 12.6025C42.6791 10.6264 41.5788 9.46421 39.7174 9.46421ZM38.391 10.1694V15.04H39.6652C41.0874 15.04 41.8789 14.1695 41.8789 12.6112C41.8789 11.0399 41.0917 10.1694 39.6652 10.1694H38.391Z" fill="white"/>
<path fill-rule="evenodd" clip-rule="evenodd" d="M45.7029 15.8235C44.4504 15.8235 43.6067 14.9225 43.6067 13.4818C43.6067 12.0367 44.4504 11.14 45.7029 11.14C46.9511 11.14 47.7948 12.0367 47.7948 13.4818C47.7948 14.9225 46.9511 15.8235 45.7029 15.8235ZM47.025 13.4818C47.025 14.5482 46.5031 15.1576 45.7029 15.1576C44.9027 15.1576 44.3764 14.5482 44.3764 13.4818C44.3764 12.4154 44.9027 11.806 45.7029 11.806C46.5031 11.806 47.025 12.4154 47.025 13.4818Z" fill="white"/>
<path d="M52.5756 15.7452H53.3454L54.6066 11.2184H53.8586L52.9539 14.9008H52.9366L51.9102 11.2184H51.1795L50.1575 14.9008H50.1401L49.2355 11.2184H48.4831L49.7487 15.7452H50.5185L51.5362 12.2412H51.5535L52.5756 15.7452Z" fill="white"/>
<path d="M56.2343 11.2184H55.5211V15.7452H56.2778V13.0813C56.2778 12.3152 56.7431 11.8103 57.4564 11.8103C58.1522 11.8103 58.4958 12.2108 58.4958 12.942V15.7452H59.2526V12.8071C59.2526 11.7799 58.6785 11.14 57.6869 11.14C56.9867 11.14 56.5039 11.4534 56.2517 11.9409H56.2343V11.2184Z" fill="white"/>
<path d="M60.5497 9.46421V15.7452H61.3065V9.46421H60.5497Z" fill="white"/>
<path fill-rule="evenodd" clip-rule="evenodd" d="M62.4036 13.4818C62.4036 14.9225 63.2473 15.8235 64.4998 15.8235C65.748 15.8235 66.5917 14.9225 66.5917 13.4818C66.5917 12.0367 65.748 11.14 64.4998 11.14C63.2473 11.14 62.4036 12.0367 62.4036 13.4818ZM64.4998 15.1576C65.3001 15.1576 65.822 14.5482 65.822 13.4818C65.822 12.4154 65.3001 11.806 64.4998 11.806C63.6996 11.806 63.1734 12.4154 63.1734 13.4818C63.1734 14.5482 63.6996 15.1576 64.4998 15.1576Z" fill="white"/>
<path fill-rule="evenodd" clip-rule="evenodd" d="M68.9718 15.8235C68.0716 15.8235 67.4671 15.2794 67.4671 14.4655C67.4671 13.6907 68.0629 13.2032 69.1067 13.1423L70.4027 13.0683V12.6896C70.4027 12.1368 70.0374 11.806 69.4111 11.806C68.8283 11.806 68.463 12.0802 68.3673 12.5242H67.6367C67.6889 11.7407 68.3586 11.14 69.4285 11.14C70.4897 11.14 71.1594 11.7146 71.1594 12.6156V15.7452H70.4418V14.966H70.4244C70.1548 15.484 69.5807 15.8235 68.9718 15.8235ZM70.4027 14.0259C70.4027 14.6788 69.8547 15.1793 69.1414 15.1793C68.5978 15.1793 68.2368 14.8964 68.2368 14.4655C68.2368 14.0389 68.5848 13.7691 69.1936 13.7299L70.4027 13.6559V14.0259Z" fill="white"/>
<path fill-rule="evenodd" clip-rule="evenodd" d="M72.1956 13.4818C72.1956 14.9008 72.9785 15.8235 74.131 15.8235C74.7833 15.8235 75.3009 15.5014 75.5923 14.9791H75.6053V15.7452H76.3273V9.46421H75.5705V11.954H75.5531C75.2835 11.4578 74.7616 11.14 74.1136 11.14C72.9741 11.14 72.1956 12.0628 72.1956 13.4818ZM74.2745 11.806C73.4743 11.806 72.9698 12.4589 72.9698 13.4818C72.9698 14.509 73.4743 15.1576 74.2745 15.1576C75.053 15.1576 75.5749 14.496 75.5749 13.4818C75.5749 12.4719 75.053 11.806 74.2745 11.806Z" fill="white"/>
<path fill-rule="evenodd" clip-rule="evenodd" d="M81.6441 15.8235C80.3916 15.8235 79.5479 14.9225 79.5479 13.4818C79.5479 12.0367 80.3916 11.14 81.6441 11.14C82.8923 11.14 83.736 12.0367 83.736 13.4818C83.736 14.9225 82.8923 15.8235 81.6441 15.8235ZM82.9662 13.4818C82.9662 14.5482 82.4444 15.1576 81.6441 15.1576C80.8439 15.1576 80.3177 14.5482 80.3177 13.4818C80.3177 12.4154 80.8439 11.806 81.6441 11.806C82.4444 11.806 82.9662 12.4154 82.9662 13.4818Z" fill="white"/>
<path d="M85.5073 11.2184H84.794V15.7452H85.5508V13.0813C85.5508 12.3152 86.0161 11.8103 86.7293 11.8103C87.4252 11.8103 87.7688 12.2108 87.7688 12.942V15.7452H88.5255V12.8071C88.5255 11.7799 87.9514 11.14 86.9598 11.14C86.2597 11.14 85.7769 11.4534 85.5247 11.9409H85.5073V11.2184Z" fill="white"/>
<path d="M92.9073 10.1258H92.1506V11.2184H91.4765V11.8408H92.1506V14.57C92.1506 15.4405 92.4724 15.78 93.3031 15.78C93.4814 15.78 93.6902 15.7669 93.7815 15.7452V15.1097C93.7293 15.1184 93.5553 15.1315 93.4684 15.1315C93.0813 15.1315 92.9073 14.9443 92.9073 14.5308V11.8408H93.7858V11.2184H92.9073V10.1258Z" fill="white"/>
<path d="M94.9265 9.46421V15.7452H95.6832V13.1074C95.6832 12.3239 96.1486 11.8103 96.9009 11.8103C97.6098 11.8103 97.9708 12.2412 97.9708 12.9594V15.7452H98.7275V12.8202C98.7275 11.8103 98.1274 11.14 97.1358 11.14C96.4486 11.14 95.9528 11.436 95.7006 11.9409H95.6832V9.46421H94.9265Z" fill="white"/>
<path fill-rule="evenodd" clip-rule="evenodd" d="M103.73 14.4481H102.986C102.86 14.8746 102.438 15.1663 101.864 15.1663C101.051 15.1663 100.542 14.5961 100.542 13.7299V13.6863H103.787V13.3991C103.787 12.028 103.034 11.14 101.812 11.14C100.564 11.14 99.7638 12.0933 99.7638 13.4992C99.7638 14.9225 100.551 15.8235 101.847 15.8235C102.834 15.8235 103.6 15.2403 103.73 14.4481ZM101.799 11.7973C101.09 11.7973 100.594 12.3414 100.547 13.0944H103.004C102.986 12.337 102.512 11.7973 101.799 11.7973Z" fill="white"/>
<path fill-rule="evenodd" clip-rule="evenodd" d="M44.9365 31.1427L43.8405 27.9019H39.274L38.178 31.1427H36.2435L40.5692 19.1518H42.5785L46.9042 31.1427H44.9365ZM39.7472 26.4062L41.5323 21.1461H41.5822L43.3672 26.4062H39.7472Z" fill="white"/>
<path fill-rule="evenodd" clip-rule="evenodd" d="M56.6414 26.7718C56.6414 24.0047 55.1801 22.2596 52.9633 22.2596C51.7012 22.2596 50.6966 22.8995 50.1818 23.905H50.1486V22.4009H48.4133V34.0345H50.2067V29.7051H50.2482C50.7464 30.6774 51.7427 31.2923 52.9965 31.2923C55.1884 31.2923 56.6414 29.539 56.6414 26.7718ZM52.49 29.7716C53.9098 29.7716 54.7982 28.6083 54.7982 26.7718C54.7982 24.9437 53.9098 23.772 52.49 23.772C51.12 23.772 50.1984 24.9686 50.1984 26.7718C50.1984 28.5916 51.1117 29.7716 52.49 29.7716Z" fill="white"/>
<path fill-rule="evenodd" clip-rule="evenodd" d="M62.9744 22.2596C65.1912 22.2596 66.6525 24.0047 66.6525 26.7718C66.6525 29.539 65.1995 31.2923 63.0076 31.2923C61.7539 31.2923 60.7576 30.6774 60.2594 29.7051H60.2179V34.0345H58.4245V22.4009H60.1598V23.905H60.193C60.7077 22.8995 61.7124 22.2596 62.9744 22.2596ZM64.8093 26.7718C64.8093 28.6083 63.9209 29.7716 62.5011 29.7716C61.1229 29.7716 60.2096 28.5916 60.2096 26.7718C60.2096 24.9686 61.1312 23.772 62.5011 23.772C63.9209 23.772 64.8093 24.9437 64.8093 26.7718Z" fill="white"/>
<path d="M73.8055 27.8022H71.9706C72.0869 29.9711 73.8803 31.3422 76.5371 31.3422C79.3767 31.3422 81.1618 29.9378 81.1618 27.6942C81.1618 25.9408 80.1405 24.952 77.6829 24.3703L76.3628 24.0462C74.8185 23.664 74.1875 23.1654 74.1875 22.3178C74.1875 21.2541 75.1755 20.5229 76.6202 20.5229C78.0649 20.5229 79.0529 21.2458 79.1608 22.4424H80.9708C80.9127 20.3733 79.1774 18.9523 76.6451 18.9523C74.0878 18.9523 72.2861 20.3733 72.2861 22.4424C72.2861 24.1127 73.3074 25.1431 75.5076 25.6749L77.0602 26.0489C78.6128 26.4311 79.2688 26.9879 79.2688 27.9186C79.2688 28.9905 78.1811 29.7716 76.67 29.7716C75.0925 29.7716 73.9384 28.9905 73.8055 27.8022Z" fill="white"/>
<path d="M85.3444 20.3318H83.5427V22.4009H82.2724V23.8219H83.5427V28.8409C83.5427 30.5278 84.2318 31.2009 86.0003 31.2009C86.3988 31.2009 86.7974 31.1677 86.9966 31.1178V29.6968C86.8804 29.7218 86.5898 29.7384 86.4072 29.7384C85.6765 29.7384 85.3444 29.3977 85.3444 28.6415V23.8219H87.005V22.4009H85.3444V20.3318Z" fill="white"/>
<path fill-rule="evenodd" clip-rule="evenodd" d="M88.2816 26.7718C88.2816 29.5888 89.9255 31.3089 92.4247 31.3089C94.9238 31.3089 96.5677 29.5888 96.5677 26.7718C96.5677 23.9631 94.9155 22.243 92.4247 22.243C89.9338 22.243 88.2816 23.9631 88.2816 26.7718ZM92.4247 29.8298C93.8361 29.8298 94.7411 28.7163 94.7411 26.7718C94.7411 24.8356 93.8278 23.7221 92.4247 23.7221C91.0215 23.7221 90.1082 24.8356 90.1082 26.7718C90.1082 28.7163 91.0215 29.8298 92.4247 29.8298Z" fill="white"/>
<path d="M98.3592 22.4009H100.07V23.8883H100.111C100.402 22.8662 101.182 22.2596 102.212 22.2596C102.469 22.2596 102.693 22.3012 102.826 22.3261V23.9964C102.685 23.9382 102.369 23.8966 102.021 23.8966C100.867 23.8966 100.153 24.6694 100.153 25.9076V31.1427H98.3592V22.4009Z" fill="white"/>
<path fill-rule="evenodd" clip-rule="evenodd" d="M110.13 28.5812H111.833C111.583 30.1767 110.072 31.3151 108.071 31.3151C105.506 31.3151 103.953 29.5784 103.953 26.8196C103.953 24.0774 105.531 22.2492 107.997 22.2492C110.421 22.2492 111.932 23.961 111.932 26.6118V27.2267H105.763V27.3348C105.763 28.8555 106.677 29.8609 108.113 29.8609C109.134 29.8609 109.89 29.3457 110.13 28.5812ZM105.763 26.0752L110.13 26.0339C110.13 25.6656 109.976 24.9828 109.615 24.6207C109.253 24.2587 108.72 23.9838 107.997 23.9838C106.54 23.9838 105.763 24.958 105.763 26.0752Z" fill="white"/>
</g>
</g>
</svg>
