<svg width="123" height="42" viewBox="0 0 123 42" fill="none" xmlns="http://www.w3.org/2000/svg">
<g id="Group">
<rect id="&#226;&#151;&#188;&#239;&#184;&#143; Background" width="123" height="42" rx="6" fill="black"/>
<g id="Logo">
<path d="M37.8099 11.1907H35.2917V11.9386H37.0778C36.9895 12.9874 36.1177 13.4347 35.2948 13.4347C34.242 13.4347 33.3232 12.6056 33.3232 11.4435C33.3232 10.3115 34.1989 9.43977 35.297 9.43977C36.1444 9.43977 36.6435 9.98022 36.6435 9.98022L37.1667 9.43794C37.1667 9.43794 36.4951 8.6897 35.2703 8.6897C33.7106 8.6897 32.5042 10.0072 32.5042 11.4301C32.5042 12.8246 33.6391 14.1842 35.31 14.1842C36.7798 14.1842 37.8556 13.1767 37.8556 11.6867C37.8556 11.3723 37.8099 11.1907 37.8099 11.1907Z" fill="white"/>
<path d="M38.2844 23.2445H43.8179C43.8217 23.2603 43.9179 23.6573 43.9179 24.3341C43.9179 27.6082 41.5539 29.8225 38.3246 29.8225C34.6527 29.8225 32.1587 26.8347 32.1587 23.7707C32.1587 20.6437 34.8101 17.7487 38.2372 17.7488C40.9287 17.7488 42.4044 19.393 42.4044 19.393L41.2546 20.5846C41.2546 20.5846 40.1577 19.3967 38.2959 19.3967C35.8831 19.3967 33.9587 21.3125 33.9587 23.8C33.9587 26.3533 35.9775 28.1753 38.2909 28.1753C40.0992 28.1753 42.0149 27.1924 42.2088 24.8879H38.2844V23.2445Z" fill="white"/>
<path fill-rule="evenodd" clip-rule="evenodd" d="M44.6238 25.9031C44.6238 23.8309 46.251 22.0544 48.5217 22.0544C50.3881 22.0544 52.4121 23.378 52.4121 25.9482C52.4121 28.1906 50.6721 29.8154 48.5482 29.8154C46.202 29.8154 44.6238 28.0058 44.6238 25.9031ZM50.7189 25.938C50.7189 24.4821 49.6608 23.5785 48.5442 23.5785C47.2896 23.5785 46.3253 24.5825 46.3253 25.9266C46.3253 27.3003 47.3016 28.2922 48.539 28.2922C49.6652 28.2922 50.7189 27.3629 50.7189 25.938Z" fill="white"/>
<path fill-rule="evenodd" clip-rule="evenodd" d="M57.0909 22.0544C54.8203 22.0544 53.193 23.8309 53.193 25.9031C53.193 28.0058 54.7713 29.8154 57.1176 29.8154C59.2414 29.8154 60.9813 28.1906 60.9813 25.9482C60.9813 23.378 58.9575 22.0544 57.0909 22.0544ZM57.1134 23.5785C58.23 23.5785 59.2881 24.4821 59.2881 25.938C59.2881 27.3629 58.2345 28.2922 57.1082 28.2922C55.8709 28.2922 54.8947 27.3003 54.8947 25.9266C54.8947 24.5825 55.8587 23.5785 57.1134 23.5785Z" fill="white"/>
<path fill-rule="evenodd" clip-rule="evenodd" d="M61.762 25.9358C61.762 23.8853 63.4004 22.0585 65.4843 22.0585C66.3917 22.0585 67.0752 22.4099 67.575 22.949V22.2918H69.2006V29.2647C69.2006 32.0044 67.6213 33.3104 65.549 33.3104C63.6546 33.3104 62.5905 32.1446 62.0617 31.0253L63.5519 30.4018C63.7583 30.9019 64.3524 31.7837 65.5367 31.7837C66.7627 31.7837 67.5748 30.9815 67.5748 29.6427V28.8775C67.1411 29.3814 66.5536 29.8205 65.4484 29.8205C63.6612 29.8205 61.762 28.2716 61.762 25.9358ZM65.6352 23.5796C66.657 23.5796 67.7063 24.4528 67.7063 25.9441C67.7063 27.4598 66.6592 28.2951 65.6126 28.2951C64.5017 28.2951 63.4677 27.3923 63.4677 25.9585C63.4677 24.4687 64.5415 23.5796 65.6352 23.5796Z" fill="white"/>
<path fill-rule="evenodd" clip-rule="evenodd" d="M73.1538 25.9246C73.1538 23.6146 74.8043 22.0491 76.7702 22.0491C78.3208 22.0491 79.4924 23.0842 79.9946 24.3232L80.2646 24.956L75.0656 27.115C75.3761 27.6936 75.8774 28.291 76.9673 28.2911C77.9376 28.2911 78.5191 27.7631 78.867 27.2228L80.2072 28.1154C79.6063 28.9202 78.5995 29.8183 76.9591 29.8183C74.9936 29.8183 73.1538 28.3688 73.1538 25.9246ZM76.8381 23.5417C77.5465 23.5417 78.0563 23.9185 78.2728 24.3705L74.8008 25.8229C74.6512 24.6984 75.7157 23.5417 76.8381 23.5417Z" fill="white"/>
<path d="M72.212 29.588H70.5042V18.1501H72.212V29.588Z" fill="white"/>
<path d="M93.4002 29.588H95.1079V18.1501H93.4002V29.588Z" fill="white"/>
<path fill-rule="evenodd" clip-rule="evenodd" d="M86.052 29.588H84.3443V18.1501L88.4752 18.15C90.4776 18.15 92.1159 19.7896 92.1159 21.7938C92.1159 23.7978 90.4776 25.4374 88.4752 25.4374H86.052V29.588ZM86.052 23.7283V19.8591H88.4752C89.5351 19.8591 90.4083 20.733 90.4083 21.7938C90.4083 22.8544 89.5351 23.7283 88.4752 23.7283H86.052Z" fill="white"/>
<path d="M107.716 33.3104L112.661 22.0494H110.796L108.558 27.1452L106.32 22.0494H104.455L107.625 29.2693L105.851 33.3104H107.716Z" fill="white"/>
<path fill-rule="evenodd" clip-rule="evenodd" d="M102.097 29.588H103.805V25.4742C104.072 21.2315 98.6974 20.2336 96.6638 23.2922L98.038 24.2151C99.0324 22.4752 101.87 22.8755 102.056 24.7401C101.204 24.5141 100.282 24.3502 99.4407 24.4354C98.1269 24.5684 97.002 25.4035 96.8233 26.7712C96.7267 27.5103 96.8915 28.4213 97.407 28.9765C98.2104 29.8416 99.5295 29.9582 100.613 29.6626C101.223 29.4961 101.703 29.1334 102.097 28.6647V29.588ZM100.207 28.1717C101.142 27.917 101.879 27.2328 102.097 26.2816C101.619 26.1268 101.18 26.0018 100.676 25.9409C97.7412 25.4994 98.2325 28.7105 100.207 28.1717Z" fill="white"/>
<path d="M48.8797 14.0776H48.1026V8.87237H48.8797V14.0776Z" fill="white"/>
<path d="M43.7504 14.0776H44.5276V9.65012H45.8032V8.87237H42.4747V9.65012H43.7504V14.0776Z" fill="white"/>
<path d="M41.6553 14.0776H38.6749V8.87237H41.6553V9.65012H39.4521V11.0861H41.3901V11.8639H39.4521V13.2997H41.6553V14.0776Z" fill="white"/>
<path d="M51.5652 14.0776V9.65012H52.8409V8.87237H49.5124V9.65012H50.7881V14.0776H51.5652Z" fill="white"/>
<path fill-rule="evenodd" clip-rule="evenodd" d="M54.8405 11.4301C54.8405 10.007 56.0471 8.6897 57.6067 8.6897C59.1664 8.6897 60.373 10.007 60.373 11.4301C60.373 12.8134 59.256 14.1624 57.6067 14.1837C55.9575 14.1624 54.8405 12.8134 54.8405 11.4301ZM57.6067 13.4344C56.5642 13.4216 55.6596 12.5966 55.6596 11.4435C55.6596 10.3208 56.5213 9.45403 57.6067 9.44001C58.6923 9.45403 59.5539 10.3208 59.5539 11.4435C59.5539 12.5966 58.6493 13.4216 57.6067 13.4344Z" fill="white"/>
<path d="M61.9265 14.0776H61.1492V8.87237H61.9265L64.4211 12.662V8.87237H65.1984V14.0776H64.4225L61.9265 10.286V14.0776Z" fill="white"/>
<path d="M11.284 15.1823L20.0648 23.9573L11.3262 32.8092C11.0711 32.647 10.9344 32.2958 10.9321 31.8422L10.8529 16.1314C10.8505 15.6346 11.0311 15.3315 11.284 15.1823Z" fill="white"/>
<path d="M12.2828 15.1941L22.9603 21.0243L20.428 23.5892L11.9103 15.0769C12.0393 15.0939 12.1688 15.1318 12.2828 15.1941Z" fill="white"/>
<path d="M23.4351 26.5944L20.7937 23.9547L23.4324 21.2821L27.0662 23.266C27.9613 23.7545 27.5035 24.3657 27.0662 24.6052L23.4351 26.5944Z" fill="white"/>
<path d="M12.2828 32.7031C12.2022 32.7482 12.1245 32.7836 12.05 32.8116L20.4305 24.3227L22.9625 26.853L12.2828 32.7031Z" fill="white"/>
</g>
</g>
</svg>
