<svg width="19" height="12" viewBox="0 0 19 12" fill="none" xmlns="http://www.w3.org/2000/svg">
<g id="Logo">
<path id="Fill 1" fill-rule="evenodd" clip-rule="evenodd" d="M7.08971 5.85267C7.08971 4.01576 7.93841 2.38029 9.25983 1.3219C8.28542 0.541452 7.05453 0.0742188 5.71493 0.0742188C2.55869 0.0742188 0 2.66135 0 5.85267C0 9.044 2.55869 11.6311 5.71493 11.6311C7.05453 11.6311 8.28542 11.1639 9.25983 10.3834C7.93841 9.32505 7.08971 7.68959 7.08971 5.85267Z" fill="#EB001B"/>
<path id="Fill 4" fill-rule="evenodd" clip-rule="evenodd" d="M7.08972 5.85279C7.08972 7.68971 7.93841 9.32517 9.25983 10.3836C10.5812 9.32517 11.4299 7.68971 11.4299 5.85279C11.4299 4.01588 10.5812 2.38041 9.25983 1.32202C7.93841 2.38041 7.08972 4.01588 7.08972 5.85279Z" fill="#FF5E00"/>
<path id="Fill 8" fill-rule="evenodd" clip-rule="evenodd" d="M12.8046 0.0742188C11.465 0.0742188 10.2342 0.541452 9.25983 1.3219C10.5812 2.38037 11.4299 4.01576 11.4299 5.85267C11.4299 7.68959 10.5812 9.32505 9.25983 10.3834C10.2342 11.1639 11.465 11.6311 12.8046 11.6311C15.9609 11.6311 18.5196 9.044 18.5196 5.85267C18.5196 2.66135 15.9609 0.0742188 12.8046 0.0742188Z" fill="#F79E1C"/>
</g>
</svg>
